<svg xmlns="http://www.w3.org/2000/svg" viewBox="0 0 64 64">
  <!-- Test / kuka -->
  <rect x="16" y="24" width="32" height="32" rx="4" fill="#607D8B"/>
  <rect x="14" y="20" width="36" height="6" rx="2" fill="#455A64"/>
  <!-- Kerekek -->
  <circle cx="20" cy="58" r="5" fill="#333"/>
  <circle cx="44" cy="58" r="5" fill="#333"/>
  <!-- Robot fej -->
  <rect x="22" y="4" width="20" height="18" rx="3" fill="#90A4AE"/>
  <!-- Antenna -->
  <line x1="32" y1="4" x2="32" y2="-2" stroke="#FFD700" stroke-width="2"/>
  <circle cx="32" cy="-4" r="3" fill="#FF5722"/>
  <!-- Szemek (LED) -->
  <circle cx="28" cy="12" r="3" fill="#00E676"/>
  <circle cx="36" cy="12" r="3" fill="#00E676"/>
  <!-- Száj (kijelző) -->
  <rect x="26" y="16" width="12" height="3" rx="1" fill="#00E676"/>
  <!-- Karok -->
  <rect x="6" y="28" width="10" height="4" rx="2" fill="#78909C"/>
  <rect x="48" y="28" width="10" height="4" rx="2" fill="#78909C"/>
  <circle cx="8" cy="30" r="3" fill="#546E7A"/>
  <circle cx="56" cy="30" r="3" fill="#546E7A"/>
  <!-- Újrahasznosítás jel -->
  <path d="M28 38 L32 34 L36 38 M32 34 L32 46" fill="none" stroke="#4CAF50" stroke-width="2"/>
  <path d="M28 46 L24 42 L28 38" fill="none" stroke="#4CAF50" stroke-width="2"/>
  <path d="M36 46 L40 42 L36 38" fill="none" stroke="#4CAF50" stroke-width="2"/>
</svg>
